<svg xmlns="http://www.w3.org/2000/svg" width="141" height="60" viewBox="0 0 141 60" fill="none"><g clip-path="url(#clip0_2003_1886)"><path d="M44.6845 41.273C41.4244 45.2341 37.014 48.0835 32.0636 49.427C27.1132 50.7705 21.8678 50.5416 17.0532 48.7719C12.2386 47.0022 8.09308 43.7793 5.19027 39.5493C2.28745 35.3192 0.770949 30.2912 0.850644 25.1611C0.930338 20.0311 2.60229 15.0526 5.63509 10.9148C8.6679 6.77702 12.9116 3.68452 17.7788 2.06533C22.646 0.446145 27.896 0.380336 32.8023 1.87702C37.7085 3.3737 42.0283 6.35885 45.1638 10.4193" fill="#2168B2"></path><path d="M25.5588 51.0941C21.2195 51.0943 16.9518 49.9887 13.1582 47.8816C9.36455 45.7745 6.17013 42.7355 3.87628 39.0511C1.58243 35.3668 0.264775 31.1586 0.0476309 26.8236C-0.169513 22.4887 0.721009 18.1699 2.63519 14.2746C4.54937 10.3794 7.42408 7.03612 10.9881 4.56028C14.5522 2.08445 18.6881 0.557669 23.0056 0.123968C27.3231 -0.309734 31.6799 0.363952 35.665 2.08146C39.65 3.79897 43.132 6.50368 45.7822 9.94042L44.5453 10.8993C41.5085 6.96448 37.3238 4.07132 32.5707 2.62033C27.8175 1.16935 22.7309 1.2323 18.0151 2.80047C13.2993 4.36865 9.18745 7.36449 6.24887 11.3733C3.31028 15.382 1.69028 20.2054 1.61312 25.1757C1.53596 30.1461 3.00547 35.0175 5.8182 39.1156C8.63094 43.2136 12.6478 46.3357 17.3126 48.0496C21.9775 49.7635 27.0597 49.9844 31.8556 48.6817C36.6515 47.3791 40.924 44.6173 44.0815 40.7787L45.2875 41.7723C42.8948 44.691 39.8836 47.0413 36.4716 48.6535C33.0597 50.2656 29.3322 51.0993 25.5588 51.0941Z" fill="#2168B2"></path><path d="M30.9134 25.015C31.1298 25.4944 31.3347 25.9854 31.5357 26.4881C31.7328 25.9738 31.9416 25.4712 32.1657 24.9879C32.3899 24.5046 32.6141 24.0329 32.8499 23.5767L39.3978 10.6669C39.4905 10.478 39.6117 10.3045 39.7573 10.1526C39.8737 10.0323 40.0148 9.93869 40.1709 9.87811C40.3353 9.81694 40.5096 9.78679 40.685 9.7892H45.8723V35.3073H40.6579V20.6151C40.6579 19.9036 40.6966 19.1304 40.7661 18.2952L34.0057 31.4293C33.8148 31.8123 33.5201 32.1338 33.1553 32.3572C32.7852 32.5697 32.3644 32.678 31.9377 32.6704H31.1298C30.7033 32.677 30.2827 32.5689 29.9123 32.3572C29.5476 32.1347 29.254 31.8128 29.0657 31.4293L22.2705 18.2836C22.3169 18.6935 22.3516 19.0994 22.3748 19.5015C22.398 19.9036 22.4096 20.2748 22.4096 20.6151V35.3073H17.1914V9.7892H22.3826C22.5592 9.78711 22.7347 9.81724 22.9005 9.87811C23.0552 9.93918 23.1949 10.0328 23.3102 10.1526C23.4558 10.3045 23.5771 10.478 23.6697 10.6669L30.2408 23.6269C30.4727 24.0716 30.6969 24.5355 30.9134 25.015Z" fill="white"></path><path d="M22.4131 35.1328H1.64844V36.5286H22.4131V35.1328Z" fill="white"></path><path d="M45.917 10.9453H40.6602V59.391H45.917V10.9453Z" fill="white"></path><path d="M55.2557 39.7852V41.2042H49.1678C48.6517 41.201 48.1407 41.3063 47.668 41.5135C47.2133 41.7133 46.7993 41.9951 46.4466 42.3448C45.9142 42.8925 45.5533 43.5839 45.4084 44.334C45.2635 45.0841 45.3409 45.8601 45.631 46.5668C45.8198 47.0238 46.097 47.439 46.4465 47.7887C46.7961 48.1383 47.2112 48.4155 47.668 48.6044C48.1429 48.8029 48.6531 48.9028 49.1678 48.8983H50.9381C51.6387 48.8951 52.3323 49.0373 52.9751 49.3158C54.2415 49.8452 55.2483 50.8523 55.7775 52.119C56.0504 52.7656 56.191 53.4604 56.191 54.1623C56.191 54.8643 56.0504 55.5591 55.7775 56.2057C55.5095 56.8252 55.128 57.3891 54.6527 57.8683C54.1717 58.3485 53.6019 58.7306 52.9751 58.9934C52.3323 59.2719 51.6387 59.4141 50.9381 59.411H40.6602V57.9959H50.9381C51.4528 58.0008 51.9631 57.9009 52.4379 57.702C52.8954 57.5126 53.3106 57.2339 53.6593 56.8823C54.0125 56.5281 54.2946 56.1094 54.4904 55.649C54.6968 55.1718 54.802 54.6571 54.7996 54.1372C54.8028 53.6198 54.6974 53.1074 54.4904 52.6332C54.2916 52.179 54.0097 51.766 53.6593 51.4153C53.3044 51.0599 52.8825 50.7784 52.418 50.5873C51.9536 50.3961 51.4558 50.2991 50.9536 50.3018H49.1832C48.4792 50.3066 47.7817 50.1658 47.1346 49.8881C46.5141 49.6204 45.9501 49.2372 45.4725 48.7591C44.9945 48.2822 44.6126 47.7177 44.3477 47.0965C44.0665 46.4503 43.9242 45.7521 43.9302 45.0474C43.9251 44.3377 44.0673 43.6346 44.3477 42.9827C44.6104 42.3558 44.9924 41.7859 45.4725 41.3047C45.9516 40.8293 46.5153 40.4477 47.1346 40.1796C47.781 39.8996 48.4789 39.7586 49.1832 39.7659L55.2557 39.7852Z" fill="#14171F"></path><path d="M64.215 45.6642C65.1448 45.6615 66.0654 45.8483 66.9207 46.2133C67.7501 46.5693 68.5044 47.0796 69.1433 47.7173C69.7955 48.3703 70.3126 49.1456 70.6648 49.9988C71.017 50.852 71.1974 51.7664 71.1958 52.6895C71.1988 53.6196 71.012 54.5405 70.6469 55.3959C70.2935 56.228 69.783 56.9842 69.1433 57.623C68.5042 58.2594 67.75 58.7685 66.9207 59.1231C66.0592 59.4855 65.1341 59.6722 64.1995 59.6722C63.265 59.6722 62.3398 59.4855 61.4783 59.1231C59.799 58.4126 58.4625 57.0757 57.7521 55.3959C57.3852 54.5411 57.1984 53.6197 57.2032 52.6895C57.1977 51.7503 57.3845 50.8201 57.7521 49.9559C58.4585 48.2699 59.7957 46.9268 61.4783 46.2133C62.3432 45.8442 63.2747 45.6573 64.215 45.6642ZM64.215 47.0871C63.4593 47.0807 62.7105 47.2307 62.0156 47.5278C61.3561 47.8099 60.7565 48.2154 60.2491 48.7225C59.2072 49.7794 58.6251 51.2052 58.6296 52.6895C58.6196 53.4366 58.7643 54.1778 59.0547 54.8662C59.338 55.5298 59.7431 56.1344 60.2491 56.6486C60.7663 57.175 61.3837 57.5923 62.0649 57.8758C62.7461 58.1594 63.4772 58.3035 64.215 58.2996C64.962 58.3029 65.7016 58.1515 66.3873 57.8549C67.7301 57.2796 68.8 56.2094 69.3752 54.8662C69.6704 54.1801 69.8204 53.4403 69.8159 52.6933C69.8177 51.956 69.673 51.2256 69.3904 50.5446C69.1077 49.8637 68.6926 49.2456 68.1692 48.7264C67.6534 48.2224 67.0494 47.8174 66.3873 47.5317C65.7016 47.2351 64.962 47.0837 64.215 47.0871Z" fill="#14171F"></path><path d="M72.5391 39.2812H73.9307V56.1735C73.9296 56.452 73.9837 56.728 74.0898 56.9855C74.1959 57.243 74.3519 57.477 74.5488 57.6739C74.7457 57.8709 74.9796 58.0269 75.2371 58.133C75.4945 58.2391 75.7704 58.2932 76.0489 58.2922V59.6841C75.5808 59.6872 75.1169 59.5965 74.6844 59.4173C74.266 59.246 73.8871 58.9907 73.5712 58.6673C73.255 58.3394 73.0009 57.9569 72.8213 57.5383C72.6321 57.1083 72.536 56.6432 72.5391 56.1735V39.2812Z" fill="#14171F"></path><path d="M82.0383 59.6596C81.3329 59.6649 80.6341 59.5241 79.9858 59.2459C79.3668 58.9772 78.8032 58.5957 78.3237 58.1208C77.8477 57.6422 77.4661 57.0782 77.1989 56.4583C76.9182 55.8105 76.776 55.1112 76.7814 54.4052V45.9727H78.1768V54.4207C78.1729 54.9404 78.2728 55.4557 78.4706 55.9363C78.6603 56.3972 78.9387 56.8162 79.29 57.1697C79.6418 57.522 80.0612 57.7995 80.523 57.9855C81.0032 58.1849 81.5184 58.2861 82.0383 58.2832C82.5532 58.2865 83.0634 58.1853 83.538 57.9855C83.9958 57.7951 84.4115 57.516 84.7611 57.1644C85.1107 56.8127 85.3873 56.3953 85.5751 55.9363C85.7728 55.4557 85.8727 54.9404 85.8688 54.4207V45.9727H87.2913V54.4207C87.2967 55.1267 87.1545 55.826 86.8738 56.4737C86.3376 57.7308 85.3342 58.7303 84.0753 59.2614C83.4303 59.5308 82.7372 59.6663 82.0383 59.6596Z" fill="#14171F"></path><path d="M88.7735 42.5273H90.1689V46.038H95.2325V47.4338H90.1689V56.0945C90.1654 56.369 90.2181 56.6413 90.3238 56.8946C90.4295 57.148 90.5859 57.377 90.7835 57.5676C90.9777 57.7681 91.211 57.9265 91.469 58.033C91.727 58.1394 92.0042 58.1915 92.2832 58.1862C92.8366 58.1821 93.3662 57.9604 93.7574 57.569C94.1487 57.1777 94.3704 56.648 94.3744 56.0945H95.7698C95.7726 56.5639 95.6819 57.0291 95.5031 57.4632C95.3313 57.8812 95.0746 58.2591 94.7493 58.5728C94.4278 58.8938 94.0523 59.1555 93.64 59.3461C93.2123 59.533 92.75 59.6279 92.2832 59.6245C91.8141 59.6267 91.3496 59.5319 90.9188 59.3461C90.5025 59.1605 90.1248 58.8982 89.8056 58.5728C89.4861 58.255 89.2315 57.8781 89.0557 57.4632C88.8664 57.0319 88.7703 56.5655 88.7735 56.0945V42.5273Z" fill="#14171F"></path><path d="M97.0195 36.1562H98.4149V46.5684H97.0195V36.1562ZM97.0195 45.9846H98.4149V59.3932H97.0195V45.9846Z" fill="#14171F"></path><path d="M107.207 45.6641C108.137 45.6614 109.058 45.8482 109.913 46.2132C110.743 46.569 111.499 47.0794 112.139 47.7172C112.778 48.36 113.288 49.1201 113.639 49.9558C114.007 50.8199 114.193 51.7502 114.188 52.6893C114.193 53.6196 114.006 54.541 113.639 55.3958C112.929 57.0756 111.592 58.4125 109.913 59.123C109.051 59.4854 108.126 59.6721 107.192 59.6721C106.257 59.6721 105.332 59.4854 104.47 59.123C102.793 58.4094 101.458 57.0735 100.744 55.3958C100.379 54.5404 100.192 53.6194 100.195 52.6893C100.197 51.7494 100.389 50.8195 100.76 49.9558C101.469 48.2718 102.805 46.9297 104.486 46.2132C105.346 45.8466 106.272 45.6598 107.207 45.6641ZM107.207 47.087C106.453 47.0782 105.706 47.2256 105.012 47.52C104.351 47.8021 103.75 48.2075 103.241 48.7147C102.194 49.769 101.606 51.1952 101.606 52.6816C101.602 53.4286 101.752 54.1684 102.047 54.8545C102.33 55.5181 102.735 56.1227 103.241 56.6369C103.759 57.1624 104.377 57.5791 105.058 57.8626C105.739 58.1461 106.469 58.2907 107.207 58.2879C107.954 58.2912 108.694 58.1398 109.379 57.8432C110.716 57.2682 111.781 56.2028 112.356 54.8661C112.652 54.1803 112.804 53.4404 112.8 52.6932C112.8 51.9558 112.654 51.2257 112.371 50.5449C112.088 49.8642 111.673 49.2461 111.15 48.7263C110.638 48.2193 110.038 47.8104 109.379 47.52C108.693 47.2274 107.953 47.0799 107.207 47.087Z" fill="#14171F"></path><path d="M122.512 45.6641C123.442 45.6614 124.363 45.8482 125.218 46.2131C126.91 46.9231 128.258 48.266 128.975 49.9558C129.34 50.8206 129.527 51.7504 129.524 52.6893V59.3936H128.129V52.6893C128.132 51.9387 127.982 51.1953 127.688 50.5048C127.126 49.1593 126.057 48.0896 124.712 47.5277C124.021 47.2336 123.278 47.0836 122.528 47.0869C121.781 47.0823 121.041 47.2324 120.355 47.5277C119.693 47.8125 119.089 48.2175 118.573 48.7224C118.051 49.2422 117.635 49.8602 117.352 50.541C117.069 51.2218 116.923 51.9519 116.923 52.6893V59.3936H115.531V52.6893C115.526 51.7502 115.713 50.8199 116.08 49.9558C116.787 48.2697 118.124 46.9266 119.806 46.2131C120.662 45.8482 121.582 45.6614 122.512 45.6641Z" fill="#14171F"></path><path d="M134.282 53.2245C133.828 53.2262 133.378 53.1395 132.957 52.9693C132.138 52.6487 131.474 52.0239 131.105 51.2256C130.917 50.8175 130.813 50.3757 130.8 49.9265C130.765 49.6595 130.765 49.3892 130.8 49.1223C130.813 48.6731 130.917 48.2312 131.105 47.8232C131.287 47.4287 131.543 47.0729 131.859 46.7754C132.177 46.4759 132.55 46.2398 132.957 46.0794C133.378 45.9092 133.828 45.8226 134.282 45.8242H139.307V47.2161H134.282C133.75 47.2151 133.237 47.4173 132.848 47.7816C132.46 48.1459 132.225 48.6447 132.191 49.1764C132.156 49.4071 132.156 49.6417 132.191 49.8723C132.224 50.404 132.459 50.903 132.848 51.2668C133.236 51.6306 133.75 51.8317 134.282 51.8287H136.292C136.748 51.8267 137.2 51.9133 137.622 52.0839C138.031 52.2473 138.404 52.489 138.72 52.7953C139.033 53.0992 139.287 53.4584 139.47 53.8547C139.659 54.2625 139.764 54.7044 139.779 55.1538V55.958C139.784 56.4205 139.688 56.8785 139.497 57.2996C139.311 57.7079 139.048 58.0767 138.724 58.3861C138.402 58.698 138.026 58.9483 137.614 59.1246C137.185 59.3041 136.723 59.3949 136.258 59.3914H131.093V57.9956H136.265C136.767 57.9985 137.254 57.8221 137.637 57.4982C138.02 57.1743 138.275 56.7241 138.356 56.2287C138.351 56.1708 138.351 56.1125 138.356 56.0547C138.36 55.9954 138.36 55.9361 138.356 55.8768V55.3162C138.346 54.7585 138.115 54.2277 137.715 53.8392C137.523 53.6419 137.294 53.4856 137.04 53.3799C136.786 53.2742 136.513 53.2213 136.238 53.2245H134.282Z" fill="#14171F"></path><path d="M51.4388 18.2229C52.6067 18.2145 53.7637 18.4488 54.8364 18.9111C55.8717 19.3502 56.8147 19.9812 57.6156 20.7708C58.4337 21.5799 59.0832 22.5432 59.5264 23.6051C59.9697 24.667 60.1979 25.8063 60.1979 26.957C60.1979 28.1077 59.9697 29.247 59.5264 30.3089C59.0832 31.3708 58.4337 32.3342 57.6156 33.1432C56.8147 33.9328 55.8717 34.5638 54.8364 35.003C53.7637 35.4652 52.6067 35.6996 51.4388 35.6912C50.2757 35.7007 49.1235 35.4663 48.0566 35.003C47.0271 34.5616 46.0896 33.9308 45.2929 33.1432C44.4942 32.3539 43.8574 31.4162 43.4182 30.3826C42.7391 28.7783 42.5548 27.0076 42.8888 25.2978C43.2228 23.5879 44.06 22.0169 45.2929 20.7863C46.0896 19.9987 47.0271 19.3679 48.0566 18.9265C49.1224 18.4579 50.2746 18.2182 51.4388 18.2229ZM51.4388 21.1033C50.4724 21.1052 49.5213 21.3455 48.6699 21.8029C47.8185 22.2603 47.0931 22.9207 46.5579 23.7257C46.0227 24.5306 45.6943 25.4551 45.6017 26.4174C45.5092 27.3796 45.6553 28.3498 46.0273 29.242C46.316 29.9406 46.7433 30.5733 47.2835 31.1018C47.8261 31.6321 48.4616 32.058 49.1582 32.3583C49.8776 32.667 50.6522 32.8262 51.4349 32.8262C52.2177 32.8262 52.9922 32.667 53.7116 32.3583C54.4083 32.058 55.0437 31.6321 55.5863 31.1018C56.1265 30.5733 56.5539 29.9406 56.8425 29.242C57.2206 28.3501 57.3715 27.3783 57.2816 26.4137C57.1917 25.4491 56.8639 24.5219 56.3275 23.7153C55.7912 22.9086 55.0631 22.2477 54.2085 21.7919C53.3539 21.336 52.3996 21.0994 51.4311 21.1033H51.4388Z" fill="#2068B2"></path><path d="M51.4349 36.4565C50.1646 36.4645 48.9063 36.2092 47.7396 35.7064C46.624 35.2227 45.6071 34.5371 44.7401 33.6843C43.8694 32.8242 43.1748 31.8024 42.6954 30.6762C42.193 29.5037 41.9377 28.2401 41.9455 26.9645C41.9419 25.7103 42.1871 24.4679 42.6668 23.3092C43.1465 22.1504 43.8512 21.0983 44.7401 20.2138C45.6071 19.3609 46.624 18.6754 47.7396 18.1917C48.9062 17.6886 50.1645 17.4332 51.4349 17.4416C52.7089 17.4344 53.9707 17.6897 55.1418 18.1917C56.2654 18.6713 57.2894 19.3571 58.1606 20.2138C59.0474 21.0993 59.75 22.1518 60.2277 23.3105C60.7054 24.4692 60.9487 25.7111 60.9436 26.9645C60.9505 28.2401 60.6953 29.5034 60.1938 30.6762C59.7143 31.8024 59.0198 32.8242 58.149 33.6843C57.2778 34.5409 56.2538 35.2268 55.1302 35.7064C53.9627 36.2068 52.705 36.4621 51.4349 36.4565ZM51.4349 19.0036C50.3799 18.9973 49.335 19.2092 48.3658 19.6261C47.4251 20.0316 46.5679 20.6085 45.8379 21.3273C45.0978 22.0668 44.5117 22.9458 44.1136 23.9135C43.7155 24.8811 43.5133 25.9181 43.5187 26.9645C43.5114 28.0274 43.7232 29.0803 44.141 30.0576C44.5403 30.9994 45.1193 31.8544 45.8456 32.5746C46.5756 33.2934 47.4328 33.8703 48.3735 34.2758C49.3488 34.6836 50.3953 34.8936 51.4523 34.8936C52.5093 34.8936 53.5558 34.6836 54.531 34.2758C55.4763 33.8724 56.3377 33.2953 57.0706 32.5746C57.7963 31.8545 58.3764 31.0013 58.7791 30.0615C59.1962 29.084 59.408 28.0312 59.4014 26.9684C59.4031 25.9057 59.1901 24.8536 58.7752 23.8753C58.3794 22.9281 57.8 22.0688 57.0706 21.3467C56.3377 20.6259 55.4763 20.0489 54.531 19.6454C53.5535 19.2227 52.4999 19.0043 51.4349 19.0036ZM51.4349 33.6108C50.5436 33.6142 49.6615 33.4311 48.8451 33.0734C48.0617 32.7353 47.3465 32.257 46.7346 31.6621C46.1219 31.0595 45.6356 30.3405 45.3045 29.5472C44.965 28.7426 44.7876 27.8789 44.7823 27.0055C44.7769 26.1322 44.9438 25.2664 45.2734 24.4576C45.603 23.6489 46.0888 22.9131 46.703 22.2924C47.3172 21.6716 48.0478 21.1781 48.8529 20.8402C50.507 20.1596 52.3628 20.1596 54.0169 20.8402C54.8096 21.1728 55.5303 21.6559 56.139 22.263C57.0676 23.2024 57.6981 24.3954 57.9511 25.6921C58.2042 26.9887 58.0686 28.3313 57.5615 29.5511C57.2318 30.3441 56.7468 31.0632 56.1352 31.666C55.5233 32.2609 54.8081 32.7391 54.0247 33.0772C53.207 33.4292 52.325 33.607 51.4349 33.5992V33.6108ZM51.4349 21.8841C50.7573 21.8794 50.0856 22.0108 49.4597 22.2707C48.8539 22.5271 48.3028 22.8972 47.8363 23.361C47.3642 23.8336 46.9904 24.395 46.7363 25.0128C46.4822 25.6306 46.3529 26.2926 46.3558 26.9606C46.3511 27.6384 46.4826 28.3103 46.7424 28.9364C46.9918 29.5384 47.3599 30.0841 47.8247 30.5409C48.3013 31.0034 48.8579 31.3754 49.4674 31.6389C50.0885 31.9027 50.7563 32.0386 51.431 32.0386C52.1058 32.0386 52.7736 31.9027 53.3946 31.6389C54.0036 31.3744 54.5601 31.0025 55.0374 30.5409C55.4996 30.082 55.8673 29.5369 56.1197 28.9364C56.6401 27.672 56.6401 26.2532 56.1197 24.9888C55.6078 23.7664 54.636 22.7944 53.414 22.2823C52.788 22.017 52.1147 21.8816 51.4349 21.8841Z" fill="#2068B2"></path><path d="M71.8261 18.2557C72.9985 18.249 74.1599 18.4819 75.2392 18.94C76.2808 19.378 77.2303 20.009 78.0377 20.7997C78.8514 21.6111 79.4967 22.5753 79.9365 23.6369C80.3763 24.6986 80.6019 25.8368 80.6004 26.9859C80.6081 28.1492 80.3738 29.3013 79.9124 30.369C79.4685 31.4011 78.8323 32.3393 78.0377 33.1335C77.2351 33.934 76.2847 34.5709 75.2392 35.0087C74.1599 35.4668 72.9985 35.6997 71.8261 35.693C70.6635 35.702 69.5117 35.4689 68.4439 35.0087C66.3619 34.1117 64.7022 32.4516 63.8055 30.369C63.3423 29.3018 63.1079 28.1493 63.1175 26.9859V10.8516H65.9662V20.5175C66.7594 19.8177 67.665 19.2569 68.6449 18.8588C69.6552 18.4501 70.7363 18.2451 71.8261 18.2557ZM71.8261 21.1361C71.0445 21.1319 70.27 21.2857 69.5494 21.5885C68.8511 21.8772 68.2185 22.3047 67.6902 22.8451C67.16 23.3878 66.7342 24.0234 66.4339 24.7203C66.1253 25.4398 65.9662 26.2146 65.9662 26.9975C65.9662 27.7805 66.1253 28.5553 66.4339 29.2749C67.0314 30.6769 68.1477 31.7936 69.5494 32.3911C70.2672 32.7048 71.0428 32.8642 71.8261 32.859C72.6233 32.8668 73.4134 32.7075 74.1453 32.3911C74.8374 32.093 75.4669 31.6666 76.0007 31.1346C76.8157 30.303 77.3674 29.2494 77.5868 28.1057C77.8061 26.962 77.6833 25.779 77.2337 24.7048C76.9437 24.0062 76.5225 23.3696 75.9929 22.8296C75.4653 22.2902 74.8342 21.8628 74.1376 21.573C73.4042 21.2736 72.6181 21.125 71.8261 21.1361Z" fill="#2068B2"></path><path d="M71.8296 36.4932C70.5576 36.4942 69.2992 36.2309 68.1343 35.7199C65.8803 34.746 64.083 32.9482 63.1094 30.6936C62.6052 29.527 62.3485 28.2683 62.3556 26.9974V10.0742H66.7428V18.9669C67.2514 18.6467 67.7869 18.3711 68.343 18.1433C70.6592 17.2184 73.2463 17.2434 75.5442 18.213C76.6747 18.6904 77.7054 19.3764 78.5823 20.2351C79.4708 21.1207 80.1753 22.1735 80.6549 23.3328C81.1346 24.4921 81.38 25.735 81.377 26.9896C81.3856 28.2608 81.1289 29.5197 80.6232 30.6859C79.6478 32.9625 77.8268 34.7715 75.5442 35.7315C74.3701 36.2336 73.1065 36.4927 71.8296 36.4932ZM63.9056 11.6362V27.0012C63.8981 28.0562 64.1086 29.1014 64.5241 30.0711C65.3455 31.976 66.8679 33.4918 68.776 34.3048C69.7552 34.7155 70.8064 34.927 71.8682 34.927C72.9301 34.927 73.9813 34.7155 74.9605 34.3048C75.9123 33.9035 76.7783 33.3234 77.5116 32.5959C78.2354 31.869 78.8163 31.0125 79.224 30.0711C79.6391 29.1013 79.8496 28.0562 79.8424 27.0012C79.8472 25.9544 79.6448 24.9169 79.2467 23.9487C78.8487 22.9806 78.2629 22.1008 77.5232 21.3602C76.7741 20.6436 75.8969 20.0743 74.9373 19.6822C73.0254 18.8776 70.8742 18.8554 68.946 19.6203C68.0473 19.9856 67.2163 20.4992 66.4877 21.1398L65.185 22.2997V11.6362H63.9056ZM71.8296 33.6437C70.9374 33.6479 70.0541 33.4662 69.2359 33.1101C67.6557 32.4332 66.3973 31.1731 65.7223 29.5917C65.3679 28.7741 65.185 27.8924 65.185 27.0012C65.185 26.11 65.3679 25.2284 65.7223 24.4108C66.0604 23.6271 66.5385 22.9117 67.1332 22.2997C67.7367 21.6879 68.4553 21.2017 69.2475 20.8692C70.9123 20.1884 72.7777 20.1884 74.4426 20.8692C75.2348 21.2017 75.9534 21.6879 76.5569 22.2997C77.1524 22.9117 77.6271 23.6305 77.9561 24.4185C78.4665 25.6341 78.6053 26.9737 78.3549 28.2682C78.1044 29.5626 77.4761 30.7538 76.5492 31.6911C75.9457 32.2928 75.2334 32.7744 74.4503 33.1101C73.6235 33.4689 72.7308 33.6506 71.8296 33.6437ZM71.8296 21.9208C71.1519 21.9161 70.4802 22.0476 69.8544 22.3074C69.2537 22.5594 68.7086 22.9272 68.2503 23.39C67.7879 23.8668 67.416 24.4235 67.1525 25.0332C66.8873 25.6541 66.7506 26.3222 66.7506 26.9974C66.7506 27.6725 66.8873 28.3406 67.1525 28.9615C67.4135 29.5647 67.7844 30.114 68.2464 30.5815C68.7128 31.0437 69.2623 31.4136 69.866 31.6718C70.4921 31.9368 71.1651 32.0734 71.845 32.0734C72.5249 32.0734 73.1979 31.9368 73.8241 31.6718C74.4271 31.4108 74.9764 31.0397 75.4437 30.5776C76.1472 29.8578 76.624 28.9473 76.815 27.959C77.006 26.9707 76.9028 25.948 76.5182 25.0178C76.2634 24.4115 75.8976 23.8582 75.4398 23.3862C74.9831 22.9213 74.4376 22.5531 73.8357 22.3036C73.1993 22.0431 72.5171 21.9129 71.8296 21.9208Z" fill="#2068B2"></path><path d="M83.5117 18.5898H86.3914V35.339H83.5117V18.5898Z" fill="#2068B2"></path><path d="M87.1795 36.1198H82.7344V17.8086H87.1795V36.1198ZM84.2998 34.5732H85.6141V19.3745H84.2998V34.5732Z" fill="#2068B2"></path><path d="M97.7483 18.2229C98.9159 18.2142 100.073 18.4472 101.146 18.9072C102.181 19.3464 103.124 19.9774 103.925 20.767C104.743 21.576 105.393 22.5394 105.836 23.6013C106.279 24.6631 106.507 25.8024 106.507 26.9532C106.507 28.1039 106.279 29.2432 105.836 30.3051C105.393 31.367 104.743 32.3303 103.925 33.1394C103.124 33.929 102.181 34.5599 101.146 34.9991C100.072 35.461 98.9136 35.6953 97.7445 35.6873C96.5814 35.6965 95.4293 35.4621 94.3623 34.9991C93.3339 34.5577 92.3977 33.9269 91.6024 33.1394C90.8026 32.3502 90.1645 31.4125 89.7239 30.3788C89.0437 28.7744 88.8591 27.0031 89.1939 25.2928C89.5287 23.5826 90.3675 22.0118 91.6024 20.7824C92.3977 19.9949 93.3339 19.3641 94.3623 18.9227C95.4296 18.4552 96.5831 18.2168 97.7483 18.2229ZM97.7483 21.1033C96.7819 21.1052 95.8309 21.3455 94.9795 21.8029C94.1281 22.2603 93.4026 22.9208 92.8675 23.7257C92.3323 24.5306 92.0038 25.4551 91.9113 26.4174C91.8187 27.3796 91.9649 28.3498 92.3368 29.2421C92.6255 29.9406 93.0529 30.5733 93.5931 31.1018C94.136 31.6316 94.7714 32.0575 95.4678 32.3584C96.1871 32.667 96.9617 32.8262 97.7445 32.8262C98.5272 32.8262 99.3018 32.667 100.021 32.3584C100.719 32.0576 101.355 31.6318 101.9 31.1018C102.437 30.5712 102.864 29.9391 103.156 29.2421C103.754 27.7828 103.754 26.1468 103.156 24.6875C102.867 23.9894 102.447 23.353 101.919 22.8123C101.373 22.268 100.725 21.8369 100.012 21.5436C99.2986 21.2504 98.5347 21.1008 97.7638 21.1033H97.7483Z" fill="#2068B2"></path><path d="M97.7473 36.4565C96.477 36.4645 95.2188 36.2092 94.052 35.7064C92.9364 35.2227 91.9195 34.5371 91.0525 33.6843C90.1842 32.823 89.4911 31.8015 89.0116 30.6762C88.5089 29.5037 88.2524 28.2403 88.2579 26.9645C88.2544 25.7103 88.4995 24.4679 88.9792 23.3092C89.4589 22.1504 90.1636 21.0983 91.0525 20.2138C91.9202 19.36 92.9385 18.6744 94.0559 18.1917C95.2212 17.6886 96.4782 17.4332 97.7473 17.4416C99.0225 17.4347 100.286 17.69 101.458 18.1917C102.58 18.6723 103.604 19.3566 104.477 20.2099C105.365 21.0956 106.07 22.1484 106.549 23.3077C107.029 24.467 107.275 25.7098 107.272 26.9645C107.272 28.2418 107.009 29.5054 106.498 30.6762C106.019 31.8015 105.326 32.823 104.458 33.6843C103.586 34.5401 102.562 35.2258 101.439 35.7064C100.272 36.2055 99.016 36.4607 97.7473 36.4565ZM97.7473 19.0036C96.6922 18.9962 95.6471 19.2082 94.6782 19.6261C93.7392 20.0326 92.8834 20.6094 92.1542 21.3273C91.4134 22.0663 90.8269 22.9452 90.4287 23.913C90.0306 24.8807 89.8287 25.918 89.835 26.9645C89.8283 28.0273 90.0402 29.0801 90.4573 30.0576C90.8576 30.9977 91.4365 31.8512 92.1619 32.5707C92.8933 33.2879 93.7501 33.8645 94.6898 34.272C95.6658 34.6797 96.7129 34.8896 97.7705 34.8896C98.8281 34.8896 99.8753 34.6797 100.851 34.272C101.795 33.8666 102.656 33.2898 103.391 32.5707C104.117 31.8501 104.696 30.9953 105.095 30.0537C105.513 29.0764 105.725 28.0235 105.718 26.9606C105.723 25.9143 105.521 24.8773 105.123 23.9096C104.725 22.942 104.139 22.063 103.398 21.3235C102.664 20.6044 101.803 20.0276 100.859 19.6223C99.8749 19.2055 98.8159 18.995 97.7473 19.0036ZM97.7473 33.6108C96.8561 33.6137 95.9741 33.4307 95.1575 33.0734C94.3753 32.7352 93.6613 32.257 93.0509 31.6621C92.4369 31.0605 91.9505 30.3412 91.6207 29.5472C91.2797 28.7428 91.1011 27.8788 91.095 27.0051C91.0889 26.1313 91.2555 25.2649 91.5852 24.4558C91.915 23.6467 92.4014 22.9107 93.0164 22.2902C93.6315 21.6697 94.3631 21.1769 95.1691 20.8402C96.822 20.1598 98.6765 20.1598 100.329 20.8402C101.951 21.5293 103.234 22.832 103.899 24.464C104.564 26.0959 104.556 27.9247 103.878 29.5511C103.547 30.3443 103.06 31.0634 102.448 31.666C101.835 32.2609 101.12 32.7402 100.337 33.0811C99.5188 33.4305 98.637 33.6069 97.7473 33.5992V33.6108ZM97.7473 21.8841C97.0708 21.8775 96.4 22.0091 95.776 22.2707C94.5525 22.7806 93.58 23.7534 93.0702 24.9772C92.5499 26.2416 92.5499 27.6604 93.0702 28.9248C93.3226 29.5253 93.6903 30.0704 94.1526 30.5293C94.6299 30.9909 95.1863 31.3628 95.7953 31.6274C96.4164 31.8911 97.0842 32.027 97.7589 32.027C98.4336 32.027 99.1014 31.8911 99.7225 31.6274C100.333 31.3647 100.889 30.9926 101.365 30.5293C101.829 30.0718 102.197 29.5263 102.448 28.9248C102.709 28.3098 102.846 27.6493 102.851 26.9812C102.857 26.3131 102.73 25.6505 102.479 25.0315C102.227 24.4125 101.856 23.8493 101.386 23.3742C100.917 22.899 100.358 22.5214 99.7418 22.263C99.1099 22.0014 98.4311 21.8725 97.7473 21.8841Z" fill="#2068B2"></path><path d="M107.205 59.5577C110.992 59.5577 114.062 56.4869 114.062 52.6988C114.062 48.9107 110.992 45.8398 107.205 45.8398C103.418 45.8398 100.348 48.9107 100.348 52.6988C100.348 56.4869 103.418 59.5577 107.205 59.5577Z" fill="#14171F"></path><path d="M103.853 54.0005C104.573 54.0005 105.156 53.4171 105.156 52.6975C105.156 51.9779 104.573 51.3945 103.853 51.3945C103.134 51.3945 102.551 51.9779 102.551 52.6975C102.551 53.4171 103.134 54.0005 103.853 54.0005Z" fill="white"></path><path d="M107.209 54.0005C107.928 54.0005 108.512 53.4171 108.512 52.6975C108.512 51.9779 107.928 51.3945 107.209 51.3945C106.489 51.3945 105.906 51.9779 105.906 52.6975C105.906 53.4171 106.489 54.0005 107.209 54.0005Z" fill="#EC2426"></path><path d="M110.56 54.0005C111.28 54.0005 111.863 53.4171 111.863 52.6975C111.863 51.9779 111.28 51.3945 110.56 51.3945C109.841 51.3945 109.258 51.9779 109.258 52.6975C109.258 53.4171 109.841 54.0005 110.56 54.0005Z" fill="white"></path><path d="M97.6971 29.2C98.8264 29.2 99.7419 28.2843 99.7419 27.1547C99.7419 26.0251 98.8264 25.1094 97.6971 25.1094C96.5678 25.1094 95.6523 26.0251 95.6523 27.1547C95.6523 28.2843 96.5678 29.2 97.6971 29.2Z" fill="#EC2426"></path><path fill-rule="evenodd" clip-rule="evenodd" d="M87.0669 15.4443C86.625 16.133 85.8526 16.5893 84.9737 16.5893C84.0948 16.5893 83.3224 16.133 82.8805 15.4443H87.0669ZM87.2563 15.0886H82.6911C82.5606 14.7865 82.4883 14.4533 82.4883 14.1033C82.4883 12.7302 83.601 11.6172 84.9737 11.6172C86.3464 11.6172 87.4591 12.7302 87.4591 14.1033C87.4591 14.4533 87.3868 14.7865 87.2563 15.0886Z" fill="#14171F"></path><path d="M87.061 15.4453C86.8484 15.8093 86.5415 16.1091 86.1728 16.3133C85.8041 16.5174 85.3872 16.6183 84.9659 16.6052C84.5435 16.613 84.1265 16.51 83.7562 16.3065C83.3859 16.103 83.0754 15.8061 82.8555 15.4453H87.061Z" fill="#2068B2"></path></g><defs><clipPath id="clip0_2003_1886"><rect width="140" height="60" fill="white" transform="translate(0.0195312)"></rect></clipPath></defs></svg>